<?xml version="1.0" encoding="UTF-8" standalone="no"?>
<!-- Generator: visioncortex VTracer -->

<svg
   id="svg"
   version="1.1"
   style="display:block"
   viewBox="0 0 271 546"
   sodipodi:docname="neurarth-pin-1.svg"
   width="271"
   height="546"
   inkscape:version="1.2.1 (9c6d41e410, 2022-07-14)"
   xmlns:inkscape="http://www.inkscape.org/namespaces/inkscape"
   xmlns:sodipodi="http://sodipodi.sourceforge.net/DTD/sodipodi-0.dtd"
   xmlns="http://www.w3.org/2000/svg"
   xmlns:svg="http://www.w3.org/2000/svg">
  <defs
     id="defs144" />
  <sodipodi:namedview
     id="namedview142"
     pagecolor="#ffffff"
     bordercolor="#000000"
     borderopacity="0.25"
     inkscape:showpageshadow="2"
     inkscape:pageopacity="0.0"
     inkscape:pagecheckerboard="0"
     inkscape:deskcolor="#d1d1d1"
     showgrid="false"
     inkscape:zoom="1.0677656"
     inkscape:cx="-32.778731"
     inkscape:cy="240.68954"
     inkscape:window-width="2560"
     inkscape:window-height="1369"
     inkscape:window-x="1072"
     inkscape:window-y="360"
     inkscape:window-maximized="1"
     inkscape:current-layer="svg" />
  <path
     d="m 91,20 c 1.796875,1.386719 1.796875,1.386719 3.5625,3.0625 2.714814,2.639627 2.714814,2.639627 6.5,3.0625 3.07212,-1.045 3.07212,-1.045 5.9375,-3.1875 3.44894,-2.227439 4.97791,-2.536535 9,-1.9375 6.50179,3.102896 8.39662,8.589374 11,15 1.2318,3.961478 2.15896,7.939636 3,12 0.39474,1.750248 0.79046,3.500274 1.1875,5.25 0.40219,1.85625 0.40219,1.85625 0.8125,3.75 1.26457,0.181758 1.26457,0.181758 2.55469,0.367187 1.0957,0.167579 2.1914,0.335157 3.32031,0.507813 1.09055,0.162422 2.18109,0.324844 3.30469,0.492187 C 144,59 144,59 146,61 c -0.15031,2.931067 -0.5803,4.510351 -2.5,6.75 -2.58619,1.293094 -4.30792,1.551489 -7.15625,1.828125 -0.81275,0.08153 -1.62551,0.163066 -2.46289,0.24707 C 132.94983,69.911724 132.94983,69.911724 132,70 c -0.0647,0.582656 -0.12939,1.165312 -0.19605,1.765625 C 129.86481,88.703555 126.64745,103.64003 119,119 c 1.03125,-0.18563 2.0625,-0.37125 3.125,-0.5625 C 126,118 126,118 128.9375,118.5 c 3.10858,0.50752 5.57323,0.17293 8.66577,-0.24658 4.64183,-0.49081 9.29604,-0.43791 13.95923,-0.44092 1.50337,-0.0184 1.50337,-0.0184 3.03711,-0.0371 5.51724,-0.0109 10.23811,0.19925 15.40039,2.22461 4.24835,4.24835 7.65563,8.94405 8.3407,15.02338 -0.0162,1.07376 -0.0324,2.14752 -0.0491,3.25383 -0.0113,1.24028 -0.0225,2.48056 -0.0341,3.75842 -0.0279,1.36175 -0.0561,2.72349 -0.0846,4.08522 -0.019,1.44449 -0.0366,2.889 -0.0529,4.33353 -0.0483,3.91611 -0.11565,7.83169 -0.18668,11.74744 -0.0715,4.1128 -0.12617,8.22582 -0.18283,12.33884 -0.0977,6.91608 -0.20673,13.8319 -0.32366,20.74767 -0.14937,8.83616 -0.28117,17.67249 -0.40689,26.50901 -0.10867,7.6353 -0.22437,15.27049 -0.34175,22.90567 -0.0373,2.4334 -0.0738,4.86682 -0.1103,7.30024 -0.0584,3.8521 -0.12111,7.7041 -0.18703,11.55608 -0.0234,1.40145 -0.0457,2.80291 -0.0665,4.2044 C 175.79982,302.12234 175.79982,302.12234 165,313 c -8.53191,6.45626 -8.53191,6.45626 -13.26953,7.5 -0.57106,0.165 -1.14211,0.33 -1.73047,0.5 -1.17752,3.53257 -0.94645,5.92254 -0.68628,9.63818 0.0454,0.67253 0.0908,1.34505 0.1376,2.03795 0.15265,2.24119 0.31367,4.48169 0.47446,6.72231 0.10934,1.58855 0.21807,3.17714 0.32622,4.76578 0.28843,4.21778 0.58357,8.43506 0.88057,12.65225 0.522,7.42263 1.03377,14.84597 1.54321,22.26947 0.0565,0.8196 0.11299,1.6392 0.17119,2.48364 0.9029,13.13949 1.66,26.28291 2.3463,39.43534 0.63201,12.0956 1.40022,24.17153 2.36923,36.24508 0.19093,2.41961 0.38051,4.83931 0.56845,7.25916 0.1216,1.56143 0.24508,3.12272 0.37067,4.68383 0.30355,3.85889 0.55027,7.71059 0.70492,11.57849 0.0506,1.1565 0.0506,1.1565 0.10228,2.33637 0.0604,1.45386 0.10959,2.90824 0.14517,4.36291 0.18455,4.31074 0.96386,7.06263 3.54601,10.52924 1.90149,1.69152 1.90149,1.69152 4,3.0625 2.95737,2.02199 5.06134,3.89787 7,6.9375 0.25,2.6875 0.25,2.6875 0,5 -3.61196,3.61196 -15.47699,2.0698 -20.43286,2.11353 -2.2164,-1.6e-4 -4.4328,-0.006 -6.64917,-0.0159 -1.18019,-10e-4 -2.36038,-0.003 -3.57634,-0.004 -3.71807,-0.006 -7.43608,-0.0181 -11.15413,-0.0309 -2.54232,-0.005 -5.08463,-0.01 -7.62695,-0.0137 -6.18687,-0.0111 -12.37371,-0.0278 -18.56055,-0.049 -1.28235,-2.56471 -1.22634,-4.53692 -1.35937,-7.41016 -0.092,-1.78531 -0.092,-1.78531 -0.1858,-3.60669 -0.0328,-0.65425 -0.0656,-1.30849 -0.0994,-1.98257 -1.19144,-23.31274 -3.42506,-46.54982 -5.530921,-69.79373 C 98.185111,425.14036 97.580083,418.0716 97,411 c -2.599776,16.04117 -4.071172,32.12541 -5.42395,48.30684 -0.439133,5.20635 -0.922747,10.40724 -1.431519,15.60722 -0.105094,1.08148 -0.105094,1.08148 -0.212311,2.1848 -0.333576,3.42837 -0.671987,6.85608 -1.018158,10.28322 -0.630677,6.49114 -1.035964,12.81171 -0.764892,19.33301 C 87.980269,509.30223 87.388242,510.82296 86,513 c -2.449428,1.22471 -4.040147,1.12691 -6.77832,1.12939 -0.995741,0.003 -1.991481,0.006 -3.017395,0.01 -1.083196,-0.002 -2.166391,-0.004 -3.28241,-0.006 -1.677242,0.001 -1.677242,0.001 -3.388367,0.003 -2.377381,6.8e-4 -4.754763,-10e-4 -7.132141,-0.005 -3.594771,-0.005 -7.189413,-9e-5 -10.784179,0.006 C 40.373384,514.13966 29.198221,514.13116 18,513 c -1,-3 -1,-3 -0.285156,-5.05078 2.820849,-5.21812 5.360136,-8.23041 10.613281,-11.07422 4.643553,-5.20772 2.925864,-17.27132 3.109375,-23.9375 0.281741,-8.74626 0.802497,-17.26908 2.03125,-25.93359 0.663227,-4.75673 1.064712,-9.53174 1.46875,-14.31641 0.08129,-0.95608 0.162583,-1.91216 0.246338,-2.89722 0.382956,-4.54357 0.758391,-9.08774 1.13208,-13.63208 5.005543,-60.79692 5.005543,-60.79692 8.820801,-83.45483 C 45.796675,328.758 46.2704,325.00192 46,321 43.87041,318.78523 41.461164,317.70986 38.75,316.25 32.76298,312.8823 26.931941,308.32682 24,302 c -0.769087,-1.65081 -0.769087,-1.65081 -1.553711,-3.33496 -2.154612,-5.83166 -1.837169,-11.72627 -1.774414,-17.86817 0.0028,-1.90951 0.0028,-1.90951 0.0057,-3.8576 0.0067,-2.69328 0.01892,-5.3858 0.0412,-8.07892 0.02794,-3.38845 0.03911,-6.77667 0.04379,-10.16523 0.01976,-12.81989 0.08952,-25.62293 0.938324,-38.41894 0.386817,-6.08386 0.06465,-11.94255 -0.544617,-18.01446 C 21,199 21,199 21.481934,195.77954 c 0.532942,-3.88807 0.647521,-7.59091 0.650879,-11.51392 9.56e-4,-0.71867 0.0019,-1.43734 0.0029,-2.17779 6.76e-4,-1.51268 -0.0011,-3.02536 -0.0053,-4.53803 -0.0053,-2.27969 -5.3e-5,-4.55918 0.0063,-6.83886 0.0032,-7.16592 -0.145096,-14.25209 -0.896485,-21.38623 -1.755961,-16.99214 -1.755961,-16.99214 2.435547,-23.74268 4.117201,-4.91878 7.652459,-6.64104 14.042664,-7.38475 3.865475,-0.33424 7.71669,-0.31959 11.594055,-0.29494 0.854326,0.001 1.708652,0.003 2.588867,0.004 2.699582,0.005 5.399077,0.0181 8.098633,0.0309 1.842447,0.005 3.684895,0.01 5.527344,0.0137 4.490924,0.011 8.981778,0.0282 13.472662,0.0488 -0.606817,-3.24245 -1.262548,-5.80634 -2.875,-8.6875 C 70.55446,98.393435 68.970016,85.755258 69.011719,73.578125 69.19047,71.011654 69.19047,71.011654 68,69 65.715736,68.384793 65.715736,68.384793 63.0625,68 58.219554,67.219554 58.219554,67.219554 56,65 55.5625,62.5625 55.5625,62.5625 56,60 59.082663,57.116218 61.752226,56.825308 65.8125,56.8125 67.208913,56.86034 68.605179,56.917952 70,57 70.10957,56.033203 70.219141,55.066406 70.332031,54.070312 71.859579,41.527035 74.180978,31.758695 81.875,21.5 85.139429,19.195697 87.094088,19.337981 91,20 Z M 79,69 c -1.07298,14.87728 0.448643,32.82201 9.8125,45 3.039309,3.23786 5.734693,4.37505 10.1875,5 4.73753,-0.0831 8.0848,-0.93789 11.59375,-4.26953 C 119.86062,103.32707 121.42417,84.165403 122,70 c -3.91848,-2.648402 -8.12894,-2.270863 -12.66797,-2.230469 -1.25313,6.88e-4 -1.25313,6.88e-4 -2.53157,0.0014 -1.76089,0.003 -3.52179,0.01088 -5.28264,0.02327 -2.705904,0.01831 -5.411468,0.02051 -8.117429,0.02026 -1.71029,0.0049 -3.420577,0.01074 -5.13086,0.01758 -0.813494,0.0011 -1.626988,0.0022 -2.465133,0.0034 C 82.099217,67.514053 82.099217,67.514053 79,69 Z m -45,62 c -1.149633,2.29927 -1.195164,3.77365 -1.309265,6.33583 -0.04092,0.91261 -0.08185,1.82521 -0.124012,2.76547 -0.03845,1.00693 -0.07691,2.01385 -0.116528,3.05129 -0.04197,1.06364 -0.08394,2.12728 -0.127178,3.22315 -0.479502,13.33688 -0.505927,26.67788 -0.523206,40.02176 -0.003,2.19123 -0.0071,4.38245 -0.0115,6.57368 -0.01356,6.89251 -0.02329,13.78502 -0.0272,20.67755 -0.0045,7.89524 -0.02224,15.79031 -0.051,23.68551 -0.02165,6.15854 -0.0317,12.31703 -0.03304,18.4756 -0.001,3.65697 -0.0068,7.31378 -0.02482,10.97071 -0.01962,4.0621 -0.01518,8.12385 -0.0087,12.186 -0.0092,1.19229 -0.01843,2.38458 -0.02792,3.61299 0.03942,7.88264 0.611908,14.85587 5.571869,21.23296 3.391375,2.63774 6.898703,4.44911 10.8125,6.1875 2.357768,-6.90785 3.036538,-14.01566 3.75,-21.25 0.06859,-0.68975 0.137184,-1.3795 0.207855,-2.09015 C 53.0435,275.24401 53.037074,264.06323 52.3125,252.625 52.26807,251.92081 52.22364,251.21662 52.177856,250.49109 51.661955,242.68311 50.893539,234.9196 49.984375,227.14844 48.894772,217.78221 48.38022,208.41576 47.9375,199 c -0.154283,-3.18767 -0.312278,-6.37513 -0.472656,-9.5625 -0.03671,-0.74766 -0.07342,-1.49531 -0.111237,-2.26563 C 47.105095,182.34014 46.708495,177.55037 46.088135,172.75 46,171 46,171 47,169 c 2.31,0 4.62,0 7,0 0.913257,2.73977 1.145784,4.47322 1.210938,7.30469 0.02634,0.87745 0.05269,1.75489 0.07983,2.65893 0.0278,0.96076 0.05559,1.92151 0.08423,2.91138 0.319526,8.993 1.054657,17.87192 2.0625,26.8125 1.492094,13.28181 2.289246,26.55051 2.915771,39.89722 0.0368,0.75357 0.07361,1.50714 0.111527,2.28355 0.09966,2.0577 0.192876,4.1157 0.28569,6.17372 -0.08052,2.84304 -0.08052,2.84304 1.249512,3.95801 1.909907,0.12361 3.82433,0.17795 5.738037,0.20532 1.228955,0.0199 2.45791,0.0399 3.724106,0.0604 1.355065,0.017 2.710132,0.0339 4.065201,0.0506 1.387096,0.0206 2.774186,0.0416 4.16127,0.063 3.667138,0.0553 7.334334,0.10465 11.001572,0.15285 2.965968,0.04 5.931867,0.084 8.897772,0.12843 C 117.29313,261.94137 117.29313,261.94137 135,262 c 1.58829,-4.30844 2.39122,-8.24532 2.81641,-12.8125 0.12375,-1.31106 0.2475,-2.62211 0.375,-3.9729 0.12417,-1.40482 0.24786,-2.80969 0.37109,-4.2146 0.13278,-1.4563 0.26559,-2.9126 0.39844,-4.3689 0.70551,-7.89194 1.26201,-15.77388 1.53906,-23.6936 0.30028,-8.54388 0.94667,-17.04319 1.73926,-25.55368 0.13144,-1.41486 0.2599,-2.83001 0.38525,-4.24542 0.17683,-1.9793 0.36766,-3.95733 0.55908,-5.93528 0.10885,-1.14823 0.21769,-2.29646 0.32984,-3.47949 C 144,171 144,171 146,169 c 3.625,-0.125 3.625,-0.125 7,0 -0.62613,9.56668 -1.45479,19.0973 -2.4021,28.63635 -0.39824,4.0268 -0.78511,8.0547 -1.17407,12.0824 -0.4898,5.06606 -0.9827,10.13175 -1.48804,15.19629 C 145.53089,249.0666 143.87047,272.74059 146,297 c 0.0954,1.17949 0.19078,2.35898 0.28906,3.57422 0.22841,2.80943 0.46518,5.61783 0.71094,8.42578 4.11931,1.09424 4.11931,1.09424 8.0625,-0.625 5.3861,-4.35472 9.11655,-9.40588 10.2733,-16.40756 0.54345,-5.19369 0.86183,-10.34903 0.98061,-15.569 0.0312,-1.19755 0.0312,-1.19755 0.063,-2.41928 0.043,-1.68572 0.084,-3.37148 0.1233,-5.05729 0.0585,-2.49234 0.12409,-4.98442 0.19068,-7.47656 0.22446,-8.83659 0.32584,-17.6645 0.29882,-26.5039 -0.0247,-8.44125 0.0757,-16.87329 0.26172,-25.3125 0.0251,-1.13951 0.0502,-2.27902 0.0761,-3.45305 0.0518,-2.34088 0.10364,-4.68176 0.15551,-7.02263 0.36712,-17.11432 0.7242,-34.22554 0.26452,-51.34073 -0.0264,-1.26707 -0.0527,-2.53414 -0.0798,-3.8396 -0.0407,-1.13961 -0.0814,-2.27922 -0.12329,-3.45337 -0.0326,-0.95801 -0.0651,-1.91603 -0.0986,-2.90307 C 166.91098,134.48037 165.8963,132.54343 164,130 c -3.71693,-1.23898 -7.29422,-1.3605 -11.17432,-1.5498 -0.8369,-0.042 -1.6738,-0.0839 -2.53606,-0.12718 -10.82911,-0.49625 -21.66211,-0.50731 -32.50056,-0.52614 -1.11269,-0.003 -2.22538,-0.006 -3.37178,-0.009 -5.86078,-0.0148 -11.72153,-0.0242 -17.582319,-0.0285 -6.040142,-0.006 -12.080065,-0.0297 -18.120138,-0.058 -4.668514,-0.0186 -9.336974,-0.0238 -14.005522,-0.0254 -2.228749,-0.003 -4.457498,-0.011 -6.686211,-0.0242 -3.100808,-0.017 -6.201062,-0.0152 -9.301899,-0.009 -0.915299,-0.009 -1.830599,-0.0184 -2.773635,-0.0279 C 41.157829,127.64716 37.864565,127.83168 34,131 Z m 28,139 c -0.351283,2.49795 -0.645044,4.98014 -0.902344,7.48828 -0.08263,0.77241 -0.165252,1.54481 -0.250381,2.34062 -0.265707,2.49412 -0.52525,4.98883 -0.784775,7.4836 -0.170835,1.60877 -0.342055,3.21749 -0.513672,4.82617 C 59.02262,297.09143 58.509034,302.04545 58,307 c -0.0839,0.81537 -0.1678,1.63074 -0.254242,2.47083 -1.240391,12.1006 -2.368999,24.20913 -3.434509,36.32632 -0.256728,2.91856 -0.515151,5.83696 -0.773895,8.75534 -0.79538,8.98039 -1.58381,17.96133 -2.357666,26.9436 -1.185992,13.73174 -2.456932,27.4444 -3.980225,41.1438 -1.472378,13.46024 -2.645092,26.94876 -3.841797,40.43579 -0.08265,0.92661 -0.165292,1.85321 -0.250442,2.8079 -0.154889,1.73871 -0.308534,3.47753 -0.460663,5.21649 -0.336417,3.7778 -0.711944,7.54111 -1.194657,11.30325 -0.387944,3.08763 -0.557531,5.99156 -0.514404,9.09668 0.009,0.85594 0.01805,1.71188 0.02734,2.59375 0.0116,0.62906 0.0232,1.25812 0.03516,1.90625 3.248455,1.85584 6.180895,2.50811 9.867188,3.07031 1.133085,0.17403 2.266171,0.34805 3.433593,0.52735 1.179492,0.17402 2.358985,0.34804 3.574219,0.52734 1.171758,0.18176 2.343516,0.36352 3.550781,0.55078 C 66.659583,501.4659 71.691793,502.22347 77,502 c 2.066685,-2.06669 1.65434,-6.21423 1.9375,-9.06641 0.085,-0.82628 0.169995,-1.65256 0.257568,-2.50389 0.180278,-1.76272 0.358349,-3.52568 0.534424,-5.28883 0.264233,-2.64066 0.53628,-5.28043 0.80957,-7.92017 0.92738,-9.08538 1.712072,-18.14273 2.117188,-27.26733 0.286241,-3.29198 0.735531,-6.43007 1.298828,-9.68066 1.040903,-6.0202 1.704893,-12.02704 2.263672,-18.10865 0.155111,-1.62272 0.155111,-1.62272 0.313355,-3.27823 0.326619,-3.41991 0.647825,-6.8403 0.967895,-10.26083 2.43505,-25.94193 2.43505,-25.94193 4.111328,-36.8916 0.692643,-4.87112 0.839139,-9.73829 1.044922,-14.65137 C 93,354 93,354 95,351 c 3.625,-0.1875 3.625,-0.1875 7,0 0.0512,1.30606 0.10232,2.61212 0.15503,3.95776 0.58221,14.14631 1.52842,28.24248 2.65747,42.35474 0.12864,1.63322 0.12864,1.63322 0.25989,3.29944 1.36309,17.2824 2.92547,34.53964 4.70813,51.78381 0.0821,0.80426 0.1642,1.60852 0.24879,2.43715 0.15108,1.47538 0.30512,2.95047 0.46298,4.42514 0.43679,4.26717 0.5381,8.45521 0.50771,12.74196 0.25151,2.50436 0.54534,5.00473 0.875,7.5 0.0888,0.68127 0.17757,1.36254 0.26904,2.06445 0.28081,2.14581 0.56805,4.29069 0.85596,6.43555 0.19297,1.4583 0.38568,2.91663 0.57813,4.375 0.46874,3.54237 0.94362,7.0839 1.42187,10.625 7.81006,-0.3234 15.43655,-1.45375 23.125,-2.8125 0.93675,-0.15308 1.87349,-0.30615 2.83862,-0.46387 1.32125,-0.24411 1.32125,-0.24411 2.66919,-0.49316 0.79294,-0.14027 1.58587,-0.28053 2.40283,-0.42505 2.05318,-0.65971 2.05318,-0.65971 3.24805,-2.37573 1.04147,-3.53264 0.77349,-6.9062 0.54443,-10.53516 -0.0637,-1.19621 -0.0637,-1.19621 -0.12872,-2.41658 -0.0925,-1.69403 -0.19035,-3.38778 -0.29315,-5.08122 -0.15294,-2.52951 -0.28896,-5.05946 -0.42188,-7.59009 -0.42498,-7.71512 -0.98769,-15.37531 -1.96484,-23.04102 -1.25056,-9.85705 -1.81863,-19.74905 -2.39722,-29.66479 -0.18315,-3.13487 -0.37378,-6.26922 -0.56567,-9.40356 -0.69953,-11.6015 -1.28963,-23.20098 -1.68642,-34.81716 C 142.1842,368.84751 141.77979,363.98324 141,359 c -0.11049,-1.51642 -0.19537,-3.03509 -0.24609,-4.55469 -0.0315,-0.84433 -0.063,-1.68867 -0.0955,-2.55859 -0.0475,-1.36705 -0.0475,-1.36705 -0.0959,-2.76172 -0.52001,-13.23257 -1.32528,-26.44456 -2.16185,-39.65996 -0.27642,-4.39151 -0.53497,-8.78367 -0.77994,-13.17705 -0.16184,-2.88512 -0.33092,-5.7698 -0.50112,-8.65445 -0.0793,-1.37351 -0.15542,-2.74721 -0.22821,-4.12109 -0.1011,-1.89915 -0.21467,-3.79763 -0.32888,-5.69604 -0.0606,-1.07822 -0.12118,-2.15644 -0.1836,-3.26734 C 136.2344,271.83743 136.2344,271.83743 134,270 c -2.98459,-0.24797 -5.88189,-0.37418 -8.87109,-0.41406 -0.90192,-0.0195 -1.80385,-0.0389 -2.7331,-0.059 -2.94434,-0.0606 -5.88869,-0.10679 -8.83331,-0.15198 -2.00888,-0.0371 -4.01775,-0.0747 -6.02661,-0.11279 -11.240076,-0.20379 -22.481445,-0.35418 -33.72339,-0.38721 -1.107224,-0.005 -2.214448,-0.009 -3.355225,-0.0142 -1.48512,0.003 -1.48512,0.003 -3.000244,0.006 -0.845866,10e-4 -1.691733,0.002 -2.563232,0.003 C 62.988553,268.79236 62.988553,268.79236 62,270 Z"
     style="fill:#000000"
     id="path139" />
  <text
     xml:space="preserve"
     style="font-size:85.3333px;font-family:'Tw Cen MT Condensed';-inkscape-font-specification:'Tw Cen MT Condensed, Normal';fill:#000000"
     x="-523.47729"
     y="255.57901"
     id="text410"
     transform="rotate(-90)"><tspan
       sodipodi:role="line"
       id="tspan408"
       x="-523.47729"
       y="255.57901"
       style="font-style:normal;font-variant:normal;font-weight:normal;font-stretch:normal;font-size:104px;font-family:'Tw Cen MT Condensed';-inkscape-font-specification:'Tw Cen MT Condensed, Normal';font-variant-ligatures:normal;font-variant-caps:normal;font-variant-numeric:normal;font-variant-east-asian:normal">1925—2025</tspan></text>
</svg>
