<?xml version="1.0" encoding="utf-8"?>
<!DOCTYPE svg PUBLIC "-//W3C//DTD SVG 1.0//EN" "http://www.w3.org/TR/2001/REC-SVG-20010904/DTD/svg10.dtd">
<svg version="1.0" xmlns="http://www.w3.org/2000/svg" width="195px" height="546px" viewBox="0 0 195 546" preserveAspectRatio="xMidYMid meet">
 <g fill="#ffffff">
  <path d="M0 273 l0 -273 97.50 0 97.50 0 0 273 0 273 -97.50 0 -97.50 0 0 -273z m126.50 241.65 c3.45 -0.10 8.05 -0.15 10.25 -0.05 3.80 0.10 6.20 0.10 8.50 0 1.50 -0.10 3.40 -0.10 15.50 -0.25 9.75 -0.10 11.20 -0.20 12.45 -1 1.25 -0.85 1.40 -1.15 1.10 -2.95 -0.55 -3.45 -5.60 -8.85 -11.15 -11.90 -3.75 -2.05 -4.45 -5.95 -5.35 -30.25 -0.45 -12.50 -0.90 -19.60 -1.30 -21.25 -0.40 -1.45 -1.05 -12.85 -1.75 -30.50 -0.25 -5.75 -1.65 -27.45 -2 -30 -0.15 -1.25 -0.50 -6.05 -0.75 -10.75 -0.30 -4.65 -0.70 -10.65 -0.95 -13.25 -0.30 -2.60 -0.65 -8.70 -0.80 -13.50 -0.20 -4.80 -0.55 -10.30 -0.85 -12.25 -0.25 -1.90 -0.60 -6 -0.75 -9.05 -0.30 -6.05 0 -6.85 2.75 -7.50 1.50 -0.35 7.40 -3.50 7.85 -4.15 0.15 -0.25 1.50 -1.15 3 -2 1.60 -0.90 3.40 -2.45 4.35 -3.80 0.90 -1.25 2.40 -3.25 3.35 -4.40 4.05 -5 5 -9.45 5.35 -25.10 0.10 -4.65 0.30 -9.85 0.45 -11.50 0.15 -1.65 0.40 -16.25 0.55 -32.50 0.15 -16.20 0.35 -33.75 0.45 -39 0.10 -5.20 0.30 -22.20 0.40 -37.75 l0.20 -28.25 -1.70 -3.55 c-2.35 -4.85 -6.25 -8.95 -9.10 -9.45 -3.45 -0.60 -29.50 -0.40 -32.75 0.25 -2.25 0.45 -3.25 0.45 -4.40 -0.05 -0.95 -0.40 -2.95 -0.50 -5.90 -0.30 -2.60 0.15 -4.60 0.10 -4.75 -0.20 -0.20 -0.25 0.55 -1.85 1.60 -3.60 2.05 -3.40 2.35 -4.10 4.85 -11.85 2.80 -8.65 3.75 -12.50 4.30 -17.45 0.30 -2.55 0.75 -5.05 1 -5.55 0.25 -0.45 0.35 -2.50 0.20 -4.55 -0.40 -5.70 0 -6.10 5.80 -6.60 5.60 -0.40 6.40 -0.80 8.45 -3.60 1.90 -2.65 1.90 -3.20 0.20 -4.90 -1.65 -1.55 -4.70 -2.30 -9.20 -2.35 -3.95 0 -5 -0.65 -5.25 -3.25 -0.60 -7.90 -3.95 -19.90 -7.15 -25.65 -2.95 -5.30 -3.10 -5.50 -6.20 -7.15 -2.30 -1.20 -3.40 -1.50 -4.80 -1.30 -1.95 0.25 -6.40 2.70 -8.60 4.70 -0.75 0.70 -2.20 1.35 -3.40 1.50 -1.95 0.25 -2.15 0.15 -5.40 -3 -4.75 -4.55 -7.30 -5.35 -11.05 -3.35 -4.50 2.35 -9.45 11.40 -11.65 21.25 -0.25 1.10 -0.80 4.70 -1.20 7.95 -0.45 3.30 -1.05 6.30 -1.35 6.65 -0.35 0.45 -1.80 0.65 -4.45 0.65 -4.65 0 -7.50 1 -9 3.10 -2.70 3.75 2.35 8.40 9.10 8.40 2.95 0 3 0 3.75 1.80 0.60 1.40 0.70 2.85 0.45 6.15 -0.35 5.05 1.45 17.85 3.25 22.80 0.55 1.65 1.25 4.10 1.55 5.45 0.25 1.35 1.70 4.70 3.20 7.40 1.50 2.70 2.75 5.10 2.75 5.35 0 1.20 -3.30 1.40 -24.80 1.20 l-22.55 -0.15 -3.10 2.10 c-3.95 2.65 -6.25 5.30 -7.60 8.85 -0.95 2.55 -1.05 3.70 -1 12.30 0.05 5.25 0.30 11.50 0.60 14 0.30 2.65 0.30 6.75 0.10 10 -0.45 5.85 -0.45 15.05 -0.15 25.25 0.15 4.45 0.05 6.75 -0.45 8 -0.55 1.45 -0.55 2.65 -0.05 6.50 0.30 2.60 0.60 6.20 0.65 8 0.05 4.25 -0.55 39.30 -1 57.50 -0.55 21.45 -0.55 21.35 1.35 25.35 0.85 1.85 1.90 4.35 2.25 5.50 0.55 1.85 4.95 8.15 5.70 8.15 0.15 0 1.65 1.15 3.30 2.60 1.65 1.40 4.80 3.40 7 4.45 2.20 1 4.50 2.40 5.15 3.05 l1.10 1.20 -0.75 6 c-1 8.10 -1.75 13.20 -2.55 17.95 -0.40 2.20 -0.80 5.65 -0.95 7.65 -0.10 2 -0.35 3.90 -0.60 4.20 -0.20 0.35 -0.50 3.35 -0.70 6.65 -0.20 3.30 -0.65 8.15 -0.95 10.75 -0.30 2.60 -0.60 6.10 -0.70 7.75 -0.10 1.65 -0.55 6.05 -1 9.75 -0.50 3.70 -1.05 10.70 -1.35 15.50 -0.25 4.80 -0.80 11 -1.20 13.75 -0.40 2.75 -0.90 8.25 -1 12.25 -0.30 6.85 -0.45 8.65 -1.75 16.50 -1.05 6.50 -1.80 17.20 -1.60 22 0.15 3.05 -0.70 19.30 -1.15 21.60 -0.40 2.10 -2.20 4 -4.80 5.10 -2.25 0.95 -5.50 4.75 -7.20 8.35 -1.40 3.10 -1.55 4.55 -0.50 5.45 0.65 0.55 19.05 0.90 50 1.05 1.10 0 3.35 0.05 5 0.10 6.40 0.15 10.55 0.10 11.80 -0.25 1.90 -0.55 2.40 -2.35 2.35 -9.15 0 -5.10 0.50 -11.80 1.90 -23.50 0.15 -1.35 0.35 -3.75 0.50 -5.25 0.50 -6.45 1.65 -18.90 3.50 -38.50 1.65 -17.50 2.20 -22.35 2.65 -24.75 0.25 -1.35 0.50 -2.85 0.50 -3.20 0.05 -0.50 0.20 -0.60 0.55 -0.25 0.25 0.25 0.80 5.30 1.20 11.20 0.45 5.90 1.10 14.35 1.50 18.75 0.45 4.40 1 11.25 1.30 15.25 0.30 4 0.75 8.95 1 11 0.55 4.15 1.45 14.45 1.80 19.50 0.10 1.80 0.30 5.15 0.50 7.50 0.15 2.35 0.45 8.10 0.65 12.85 0.15 4.70 0.50 8.75 0.70 9 1.15 1.10 4.35 1.55 9.35 1.25 2.90 -0.15 8.05 -0.35 11.50 -0.45z"/>
  <path d="M116.15 502.95 c-0.65 -0.20 -1.15 -0.60 -1.15 -0.80 0 -0.20 -0.20 -1.75 -0.50 -3.40 -0.55 -3.45 -1.55 -15.05 -1.60 -18 0 -1.10 -0.20 -2.90 -0.50 -4 -0.50 -2.05 -1.30 -12.65 -1.70 -21.75 -0.10 -2.90 -0.40 -6.75 -0.70 -8.60 -0.25 -1.85 -0.50 -4.85 -0.50 -6.75 0 -1.85 -0.35 -4.95 -0.75 -6.90 -0.95 -4.75 -1.65 -10.80 -2 -17.85 -0.35 -7.65 -1.15 -18.05 -1.50 -19.50 -0.20 -1.05 -1.25 -14.05 -1.50 -19.65 -0.10 -1.35 -0.30 -3.95 -0.50 -5.75 -0.20 -1.80 -0.30 -5.60 -0.30 -8.50 0.10 -6.95 -0.60 -9.80 -2.65 -11.05 -1.90 -1.15 -3.45 -1.20 -5.30 -0.10 -2 1.15 -2.60 2.80 -2.80 7.65 -0.30 7.45 -1.20 16.20 -2.70 25.70 -0.25 1.85 -0.85 7.15 -1.25 11.75 -1.05 11.80 -2.15 21.45 -2.45 21.95 -0.10 0.20 -0.40 3 -0.55 6.15 -0.35 6.20 -0.75 9.50 -2 17.20 -0.50 2.75 -0.90 6.60 -0.95 8.50 -0.20 5.65 -0.80 14.20 -1.30 18.25 -1 7.90 -1.50 12.95 -1.80 17.75 -0.15 2.75 -0.35 5.10 -0.50 5.30 -0.10 0.15 -0.30 2.40 -0.45 4.95 -0.35 5.75 -0.70 6.50 -3.10 6.50 -1.80 0 -3.05 -0.20 -11.90 -1.75 -2.45 -0.40 -5.60 -0.90 -7 -1.10 -1.35 -0.15 -2.90 -0.50 -3.40 -0.75 -0.50 -0.25 -2.95 -0.70 -5.40 -0.95 -6.65 -0.65 -6.50 -0.50 -6.20 -6.60 0.10 -2.80 0.45 -6.90 0.75 -9.10 0.55 -4.15 1 -8.20 1.95 -18.50 0.30 -3.30 0.80 -6.95 1.05 -8.10 0.30 -1.15 0.35 -2.45 0.20 -2.85 -0.15 -0.45 0.05 -3.10 0.50 -5.90 0.40 -2.85 0.85 -7.60 1 -10.65 0.15 -3 0.60 -6.75 0.95 -8.25 0.40 -1.50 0.75 -5 0.80 -7.75 0.05 -2.75 0.45 -8.15 0.85 -12 0.85 -7.50 0.90 -8 1.65 -15.25 0.50 -4.80 1.50 -18 1.80 -24 0.30 -5.65 2.75 -31.15 3.25 -34.05 0.30 -1.50 0.50 -3.65 0.50 -4.80 0 -1.10 0.25 -3.25 0.50 -4.70 0.30 -1.50 0.55 -3.60 0.55 -4.70 0 -1.10 0.35 -5.05 0.80 -8.75 0.40 -3.70 0.95 -9.10 1.15 -12 0.25 -2.90 0.75 -8.15 1.15 -11.75 0.45 -3.55 0.95 -9 1.10 -12.10 0.25 -3.75 0.60 -5.80 1.05 -6.20 0.65 -0.55 15.05 -0.40 44.45 0.40 11.20 0.30 15 0.35 17.15 0.10 0.45 -0.05 3.05 0.10 5.70 0.30 3.85 0.30 4.95 0.55 5.10 1.20 0.50 1.70 0.85 6.10 1.05 12.05 0.15 3.45 0.45 8.75 0.70 11.75 0.80 8.85 0.95 11.10 1.25 19 0.15 4.15 0.55 10.65 0.80 14.50 0.30 3.85 0.65 9.95 0.75 13.50 0.40 10.65 0.70 15.30 1.25 19.50 0.30 2.20 0.50 5.90 0.50 8.25 -0.05 2.35 0.05 5.60 0.20 7.25 0.65 7.45 1.35 20.70 1.55 28 0.10 4.40 0.55 11.25 0.95 15.25 0.45 4 0.80 9.15 0.80 11.50 0 2.35 0.20 5.95 0.50 8 1.30 9.80 1.60 12.60 1.75 17 0.10 2.60 0.40 8.15 0.70 12.25 0.30 4.15 0.65 9.40 0.80 11.75 0.10 2.35 0.35 6.75 0.55 9.75 0.25 4.50 0.15 5.65 -0.40 6.15 -0.40 0.30 -2.75 0.95 -5.20 1.40 -2.45 0.40 -8.50 1.55 -13.45 2.50 -4.95 0.95 -9.70 1.70 -10.50 1.70 -0.85 0 -1.75 0.20 -2 0.45 -0.30 0.25 -1 0.25 -1.60 0z"/>
  <path d="M148.10 309.90 c-0.80 -1 -1.45 -5.90 -1.55 -11.65 -0.05 -2.75 -0.30 -6.80 -0.60 -8.95 -0.30 -2.20 -0.40 -4.45 -0.25 -5.10 0.15 -0.60 0.10 -1.70 -0.15 -2.40 -0.70 -1.75 -1 -13.35 -0.50 -18.35 0.70 -6.95 1.40 -14.95 1.65 -19.20 0.15 -2.20 0.50 -5.70 0.80 -7.75 0.55 -4.25 1.35 -12.10 1.75 -17.25 0.70 -9.75 1.35 -16.60 1.60 -17.45 0.15 -0.55 0.35 -2.70 0.50 -4.75 0.45 -8.10 1.10 -14.50 1.85 -19.30 1.05 -6.55 1 -7.55 -0.25 -8.80 -0.90 -0.90 -1.40 -1 -4.10 -0.70 -2.30 0.25 -3.45 0.65 -4.30 1.55 -1.15 1.10 -1.25 1.65 -1.65 8.05 -0.20 3.80 -0.70 9.95 -1.10 13.65 -1 8.60 -2.20 24.95 -2.25 30.50 -0.05 2.35 -0.25 5.25 -0.55 6.50 -0.25 1.25 -0.70 6.20 -0.95 11 -0.60 10.25 -2.20 21.45 -3.15 22.05 -0.35 0.25 -2.80 0.30 -5.40 0.10 -5.60 -0.30 -18.10 -0.55 -46.40 -0.75 -20 -0.15 -20.70 -0.20 -21.40 -1.15 -0.55 -0.75 -0.70 -2.50 -0.65 -7.50 0.05 -3.55 -0.20 -7.85 -0.50 -9.55 -0.30 -1.70 -0.65 -6.50 -0.75 -10.75 -0.15 -4.25 -0.45 -10.10 -0.75 -12.95 -0.55 -5 -0.85 -8.35 -2.10 -20.75 -0.30 -3 -0.60 -7.95 -0.70 -11 -0.50 -14.05 -0.80 -17.45 -1.90 -18.60 -1.65 -1.85 -7.20 -1.25 -8.35 0.85 -0.65 1.20 -0.65 4.90 0 8.65 0.45 2.85 1.40 17.15 1.75 26.45 0.20 5.40 1.05 16.45 1.45 18.65 0.15 0.85 0.40 3.55 0.55 6 0.15 2.50 0.45 6.30 0.70 8.50 0.30 2.20 0.50 6.35 0.55 9.25 0 2.90 0.20 6.60 0.50 8.25 0.25 1.65 0.60 5.25 0.75 8 0.15 2.75 0.40 5.40 0.55 5.90 0.15 0.50 0.05 1.20 -0.25 1.55 -0.30 0.35 -0.50 1.30 -0.50 2.10 0.05 2.05 -0.85 13.10 -1.80 21.95 -0.45 4.15 -0.90 8.95 -1 10.70 -0.10 1.75 -0.40 3.40 -0.70 3.70 -1.10 1.10 -9.40 -3.35 -11.55 -6.25 -1.75 -2.40 -3.50 -6.20 -3.50 -7.70 0 -0.70 -0.20 -1.70 -0.50 -2.20 -0.80 -1.50 -1 -12.30 -0.95 -57.50 0.10 -73.80 0.50 -99.55 1.60 -102.80 0.30 -1 1.25 -2.35 2 -2.90 1.70 -1.25 0.80 -1.25 54.35 -1.25 71.45 -0.05 68.25 -0.15 73.05 1.55 2.50 0.90 3.45 3.80 3.85 11.40 0.15 3.70 0.25 7.55 0.20 8.50 0 0.95 0 4.70 0.05 8.25 0.20 11.75 -0.55 94.50 -0.95 106.25 -0.15 4.25 -0.25 10.10 -0.25 12.90 0 9.45 -1.40 18.15 -3.75 22.65 -2.10 4.10 -7.35 8.80 -10.80 9.60 -0.70 0.20 -1.65 0.45 -2 0.60 -0.40 0.15 -1 0 -1.30 -0.35z"/>
  <path d="M99 118.50 c-1.80 -0.15 -4.10 -0.65 -5.15 -1.15 -1.95 -0.85 -7.35 -5.95 -7.35 -6.95 0 -0.30 -0.80 -2.20 -1.75 -4.20 -0.95 -2 -1.75 -3.95 -1.75 -4.30 0 -0.40 -0.45 -2.05 -1 -3.70 -0.55 -1.60 -1.20 -4.65 -1.50 -6.70 -0.25 -2.05 -0.70 -4.85 -0.90 -6.25 -0.65 -3.70 -0.75 -15.05 -0.15 -16.15 0.50 -0.90 1.25 -0.95 20.40 -0.75 18.30 0.20 19.95 0.30 20.80 1.15 0.55 0.45 0.95 1.40 1 2.05 0.05 1.95 -1.20 12.55 -1.65 13.70 -0.20 0.60 -0.70 3.30 -1 6.05 -0.35 2.70 -1.05 5.80 -1.55 6.80 -0.55 1.05 -0.95 2.25 -0.95 2.75 0 1.30 -3.25 8.95 -4.70 11.20 -1.85 2.75 -7.70 7.15 -9.15 6.85 -0.20 0 -1.85 -0.20 -3.65 -0.40z"/>
 </g>
</svg>