<?xml version="1.0" encoding="utf-8"?>
<!DOCTYPE svg PUBLIC "-//W3C//DTD SVG 1.0//EN" "http://www.w3.org/TR/2001/REC-SVG-20010904/DTD/svg10.dtd">
<svg version="1.0" xmlns="http://www.w3.org/2000/svg" width="195px" height="546px" viewBox="0 0 195 546" preserveAspectRatio="xMidYMid meet">
 <g fill="#000000">
  <path d="M106.40 516.35 c-1 -0.35 -2 -0.80 -2.25 -1 -0.20 -0.25 -0.55 -4.05 -0.75 -8.50 -0.50 -13 -1.90 -32.45 -2.90 -40.35 -0.25 -2.05 -0.70 -7 -1 -11 -0.30 -4 -0.90 -11.05 -1.35 -15.75 -0.45 -4.65 -0.90 -10.35 -1 -12.60 -0.15 -2.30 -0.40 -4.15 -0.65 -4.15 -0.20 0 -0.50 1.65 -0.65 3.65 -0.20 3.25 -0.90 10.50 -2.35 25.60 -0.75 7.35 -1.45 15.20 -2 22.50 -0.25 3.30 -0.95 10.05 -1.50 15 -0.55 4.95 -1 11.95 -1 15.60 0 7.25 -0.45 8.95 -2.45 9.55 -0.70 0.20 -5.90 0.30 -11.55 0.25 -5.65 -0.05 -20.85 -0.15 -33.80 -0.25 -18.85 -0.15 -23.75 -0.30 -24.40 -0.85 -1.25 -1.05 -1.05 -5.25 0.45 -8.50 1.75 -3.70 4.95 -7.35 7.40 -8.50 3.55 -1.55 4.30 -2.80 4.90 -7.85 0.25 -2.45 0.55 -9.15 0.65 -14.95 0.20 -10.80 0.85 -19.90 1.85 -26 0.30 -1.90 0.75 -4.60 1 -6 0.20 -1.35 0.40 -4.85 0.45 -7.75 0 -2.90 0.50 -8.60 1.05 -12.75 0.55 -4.10 1.20 -11.30 1.45 -16 0.25 -4.65 0.65 -10.40 0.95 -12.75 0.30 -2.35 0.75 -6.85 1.05 -10 0.25 -3.15 0.75 -7.75 1.05 -10.25 0.25 -2.45 0.70 -7.10 0.95 -10.25 0.70 -8.45 1.35 -14.25 2.15 -18.75 0.90 -5 1.75 -10.60 2.45 -16.65 0.65 -5.65 0.50 -5.85 -5.35 -8.60 -2.20 -1 -5.35 -3 -7 -4.40 -1.65 -1.45 -3.15 -2.60 -3.30 -2.60 -0.75 0 -5.15 -6.30 -5.70 -8.15 -0.35 -1.15 -1.40 -3.65 -2.30 -5.60 -1.50 -3.20 -1.65 -3.85 -1.65 -8.75 -0.05 -6.35 0.60 -42.15 1.05 -60.50 0.40 -15.55 0.40 -15.55 -0.35 -20.75 -0.55 -4.15 -0.45 -8.20 0.40 -12.40 0.25 -1.35 0.30 -4.15 0.05 -6.50 -0.55 -5.65 -0.50 -15.50 0.05 -22.25 0.25 -3.40 0.25 -7.25 0 -9.75 -0.25 -2.25 -0.50 -9.05 -0.55 -15.10 -0.15 -10.30 -0.05 -11.20 0.95 -13.80 1.40 -3.55 3.70 -6.20 7.65 -8.90 l3.15 -2.10 20.55 0.05 c11.25 0.05 21.70 0.05 23.15 0.05 l2.65 -0.05 -2.55 -4.75 c-1.35 -2.65 -2.50 -5.30 -2.50 -5.90 0 -0.65 -0.60 -2.80 -1.30 -4.85 -1.85 -5.30 -3.75 -18.05 -3.60 -24.25 0.10 -6.70 -0.20 -7.25 -4.25 -7.25 -5.85 -0.05 -9.85 -3.25 -9.85 -7.85 0 -4.55 3.20 -6.65 9.95 -6.65 2.65 0 4.10 -0.20 4.45 -0.65 0.30 -0.35 0.90 -3.35 1.35 -6.65 1.25 -9.75 2.70 -14.90 5.70 -20.50 4.05 -7.50 6.80 -9.70 12.05 -9.70 3.95 0 5.65 0.80 9 4.20 2.90 3 4.25 3.45 5.75 1.85 0.45 -0.55 2.25 -1.85 3.95 -2.85 2.50 -1.55 3.65 -1.90 6.40 -2.10 2.95 -0.20 3.60 -0.05 6.25 1.35 1.60 0.85 3.25 2.05 3.65 2.70 4.40 6.95 7.35 15.20 9.05 25.35 0.70 4.30 1.40 7 1.90 7.40 0.40 0.35 2.15 0.60 4 0.60 7.25 0.05 10.55 1.90 10.55 5.95 0 1.75 -0.40 2.75 -1.50 4.25 -2.20 2.90 -2.95 3.25 -8.20 3.60 -3.35 0.25 -5 0.60 -5.45 1.10 -0.40 0.50 -0.55 2.15 -0.45 4.95 0.05 2.30 -0.10 4.55 -0.35 5.10 -0.30 0.50 -0.75 3.05 -1.05 5.60 -0.55 4.95 -1.45 8.75 -4.25 17.45 -2.40 7.40 -2.85 8.50 -4.15 10.50 l-1.10 1.75 6.05 0.35 c3.35 0.20 6.55 0.15 7.15 -0.05 1.35 -0.50 30.95 -0.30 33.55 0.20 2.65 0.55 6.65 4.75 8.95 9.45 l1.70 3.55 -0.15 36.25 c-0.10 19.95 -0.45 41.10 -0.75 47 -0.30 5.90 -0.50 16.25 -0.40 23 0.25 13.25 -0.80 52.70 -1.55 59.35 -0.50 4.55 -2 8.25 -4.60 11.50 -0.95 1.15 -2.45 3.15 -3.35 4.40 -0.95 1.35 -2.75 2.90 -4.35 3.80 -1.50 0.85 -2.85 1.75 -3 2 -0.45 0.65 -6.35 3.80 -7.85 4.15 -2.55 0.60 -3.05 1.60 -2.75 5.75 0.15 2.10 0.50 5.70 0.80 8.05 0.25 2.35 0.75 9.20 1 15.25 0.30 6.05 0.75 13.50 1.05 16.50 0.45 5.05 1.35 17.80 2.50 35.50 0.25 3.85 0.70 12.50 1 19.25 0.30 6.75 0.75 14.75 1 17.75 0.95 11.20 1.95 25.85 2.50 38.20 0.70 15.20 1.15 17.15 4.65 19.05 3.30 1.85 6.65 4.65 8.90 7.50 1.90 2.40 2.10 3 2.35 6 0.20 3.30 0.20 3.40 -1.20 4.30 -1.50 1.05 -1.70 1.05 -38.20 1.50 -8.10 0.10 -17.80 0.30 -21.50 0.40 -4.35 0.15 -7.40 0 -8.60 -0.35z m22.35 -17.05 c4.95 -0.95 11 -2.10 13.50 -2.50 2.45 -0.45 4.75 -1.10 5.10 -1.45 0.45 -0.45 0.40 -3.95 -0.45 -16.10 -0.55 -8.50 -1.10 -17.20 -1.15 -19.25 -0.10 -4.10 -1.05 -14 -1.80 -18.80 -0.25 -1.65 -0.45 -5.05 -0.45 -7.50 0 -2.45 -0.35 -7.70 -0.75 -11.70 -0.45 -4 -0.90 -10.05 -1 -13.50 -0.45 -14.30 -0.85 -21.65 -1.50 -28.30 -0.40 -3.90 -0.60 -8.15 -0.45 -9.50 0.15 -1.35 -0.05 -5.60 -0.50 -9.45 -0.40 -3.85 -0.90 -10.80 -1.05 -15.50 -0.20 -4.65 -0.60 -13.20 -0.95 -19 -0.35 -5.75 -0.65 -11.50 -0.65 -12.75 0.05 -1.25 -0.35 -6.95 -0.85 -12.75 -0.50 -5.75 -1.05 -14.30 -1.30 -19 -0.20 -4.65 -0.55 -8.90 -0.75 -9.35 -0.30 -0.70 -1 -0.90 -3.20 -0.95 -4.05 -0.05 -17.20 -0.35 -29.30 -0.70 -24.60 -0.65 -36.65 -0.70 -37.15 -0.10 -0.25 0.35 -0.75 4.30 -1.05 8.85 -0.35 4.55 -0.80 9.85 -1.10 11.75 -0.25 1.95 -0.70 6.10 -0.95 9.25 -0.25 3.15 -0.70 7.55 -1 9.75 -0.30 2.20 -0.55 5.45 -0.55 7.25 0 1.80 -0.35 5.05 -0.75 7.25 -0.40 2.20 -0.70 4.90 -0.70 5.95 0 1.10 -0.20 3.25 -0.50 4.75 -0.45 2.70 -2.35 23.55 -3.50 38.30 -0.30 3.85 -0.85 11.50 -1.30 17 -0.40 5.50 -0.85 10.35 -1 10.75 -0.55 1.45 -1.70 14.35 -1.70 19.10 0 2.70 -0.35 6.15 -0.75 7.75 -0.45 1.60 -1 6.40 -1.30 10.65 -0.75 10.55 -1.25 16.45 -1.65 18.25 -0.15 0.85 -0.55 4.10 -0.85 7.25 -0.30 3.15 -0.75 7.55 -0.95 9.75 -0.20 2.20 -0.65 6.15 -1 8.75 -0.85 6.80 -0.80 11.05 0.15 11.55 0.40 0.25 2.80 0.65 5.25 0.90 2.50 0.25 4.95 0.70 5.45 0.95 0.50 0.25 2.05 0.60 3.40 0.75 1.40 0.20 4.55 0.70 7 1.10 11.15 1.95 10.40 1.90 11.10 0.95 0.35 -0.50 0.65 -1.90 0.65 -3.15 0 -1.25 0.20 -4.10 0.50 -6.30 0.25 -2.20 0.75 -6.80 1.05 -10.25 0.30 -3.45 0.75 -7.95 1 -10 0.50 -4.75 1.35 -15.90 1.65 -21.75 0.15 -2.45 0.60 -6.50 1 -9 0.45 -2.45 1.05 -6.85 1.30 -9.75 0.90 -9.15 1.50 -14.55 2.25 -21 0.40 -3.45 1.10 -10.05 1.50 -14.75 0.75 -8.45 0.90 -9.55 1.75 -14.75 1 -6.25 1.60 -11.65 1.95 -19 0.25 -4.25 0.70 -8.35 1.05 -9.05 0.85 -1.90 3 -2.95 6 -2.95 3.10 0 5.35 1.05 6.10 2.90 0.30 0.75 0.70 5.20 0.95 9.85 0.45 11.15 1.80 30.55 2.40 35 0.30 1.95 0.75 7.65 1.05 12.75 0.70 12 1.35 18.40 2.25 22.75 0.40 1.90 0.75 5.05 0.75 7 0 1.90 0.20 4.85 0.50 6.50 0.25 1.65 0.60 5.60 0.75 8.75 0.80 14.35 1.20 19.90 1.65 21.75 0.30 1.10 0.65 4.80 0.85 8.25 0.15 3.45 0.65 8.75 1 11.75 0.40 3.05 0.75 5.55 0.75 5.65 0 0.45 4.50 -0.15 12.25 -1.60z m25 -193.05 c7.65 -5.10 10.15 -11.90 10.50 -28.75 0.05 -4 0.30 -13.55 0.45 -21.25 0.25 -11 0.80 -60.45 1 -86 0 -2.20 -0.15 -10.75 -0.30 -19.05 -0.50 -19.90 -0.40 -19.70 -9.80 -20.75 -2.65 -0.25 -10.80 -0.45 -18.10 -0.40 -7.30 0.05 -28.20 0.10 -46.50 0.10 -18.30 0 -37.55 0.05 -42.75 0.05 -13.50 0.05 -13.25 -0.15 -13.85 12.55 -0.55 12.05 -0.90 138 -0.40 143.75 0.70 8.10 1.85 11.80 4.90 15.35 1.35 1.60 6.80 5.15 7.90 5.15 0.30 0 0.65 -1.15 0.85 -2.85 0.15 -1.60 0.70 -7.60 1.30 -13.40 1.55 -16.30 1.90 -22.60 1.50 -28 -0.20 -2.75 -0.60 -9.70 -0.90 -15.45 -0.30 -5.70 -0.70 -10.65 -0.85 -10.90 -0.20 -0.25 -0.55 -3.55 -0.80 -7.30 -0.25 -3.80 -0.65 -9.10 -0.90 -11.85 -0.25 -2.75 -0.65 -10.05 -0.95 -16.25 -0.30 -6.20 -0.80 -13.50 -1.10 -16.25 -0.80 -7.65 -1.10 -14.50 -0.75 -16 0.45 -1.80 2.95 -2.75 7.20 -2.75 4.95 0 5.35 0.55 5.85 8.25 0.20 3.30 0.45 8.35 0.55 11.25 0.10 4.95 0.60 11.20 1.70 22 0.30 2.60 0.85 8 1.25 12 0.40 4 0.75 9.75 0.75 12.80 -0.05 3 0.30 7.60 0.70 10.20 0.55 3.15 0.70 6.30 0.50 9.70 -0.25 4 -0.15 5.25 0.40 6 0.70 0.90 1.80 0.95 21.20 1.10 11.25 0.10 27.05 0.25 35.05 0.40 l14.60 0.20 0.30 -1.55 c1.30 -7.75 1.85 -12.85 2.30 -20.35 0.25 -4.80 0.70 -9.70 0.95 -10.90 0.30 -1.15 0.50 -4.15 0.50 -6.65 0 -5.10 1.15 -20.30 2.30 -30.45 0.40 -3.70 0.90 -9.85 1.10 -13.65 0.40 -6.40 0.50 -6.95 1.65 -8.10 1.05 -1.10 1.85 -1.30 5.75 -1.55 4.20 -0.30 4.65 -0.25 5.65 0.75 1.30 1.30 1.35 4.90 0.25 11.80 -0.40 2.50 -0.95 8.10 -1.20 12.50 -0.30 4.40 -0.75 9.15 -1 10.50 -0.30 1.40 -0.85 6.90 -1.25 12.25 -0.75 10.20 -1.35 16.35 -2.20 23.50 -2 16.05 -2.75 34.80 -1.85 45 0.15 1.80 0.50 7.30 0.80 12.25 0.65 11.70 0.80 12.75 2.10 12.75 0.55 0 2.20 -0.80 3.65 -1.75z m-48.95 -190.55 c2.85 -1.90 4.65 -3.70 5.95 -5.95 1.55 -2.60 4.25 -9.25 4.25 -10.40 0 -0.50 0.40 -1.70 0.95 -2.75 0.50 -1 1.20 -4.10 1.55 -6.80 0.30 -2.75 0.75 -5.45 1 -6.05 0.20 -0.55 0.65 -3.45 0.95 -6.45 0.55 -5.05 0.55 -5.55 -0.30 -6.35 -0.85 -0.85 -2.30 -0.90 -19.40 -1 -18.30 -0.05 -18.45 -0.05 -18.95 1 -0.95 2.15 1 20.65 2.70 25.75 0.55 1.65 1 3.30 1 3.70 0 0.35 0.80 2.30 1.75 4.30 0.95 2 1.75 3.90 1.75 4.20 0 1.05 5.45 6.10 7.60 7.05 3.20 1.45 6.80 1.35 9.20 -0.25z"/>
 </g>
 <g fill="#ffffff">
  <path d="M0 273 l0 -273 97.50 0 97.50 0 0 273 0 273 -97.50 0 -97.50 0 0 -273z m126.50 241.65 c3.45 -0.10 8.05 -0.15 10.25 -0.05 3.80 0.10 6.20 0.10 8.50 0 1.50 -0.10 3.40 -0.10 15.50 -0.25 9.75 -0.10 11.20 -0.20 12.45 -1 1.25 -0.85 1.40 -1.15 1.10 -2.95 -0.55 -3.45 -5.60 -8.85 -11.15 -11.90 -3.75 -2.05 -4.45 -5.95 -5.35 -30.25 -0.45 -12.50 -0.90 -19.60 -1.30 -21.25 -0.40 -1.45 -1.05 -12.85 -1.75 -30.50 -0.25 -5.75 -1.65 -27.45 -2 -30 -0.15 -1.25 -0.50 -6.05 -0.75 -10.75 -0.30 -4.65 -0.70 -10.65 -0.95 -13.25 -0.30 -2.60 -0.65 -8.70 -0.80 -13.50 -0.20 -4.80 -0.55 -10.30 -0.85 -12.25 -0.25 -1.90 -0.60 -6 -0.75 -9.05 -0.30 -6.05 0 -6.85 2.75 -7.50 1.50 -0.35 7.40 -3.50 7.85 -4.15 0.15 -0.25 1.50 -1.15 3 -2 1.60 -0.90 3.40 -2.45 4.35 -3.80 0.90 -1.25 2.40 -3.25 3.35 -4.40 4.05 -5 5 -9.45 5.35 -25.10 0.10 -4.65 0.30 -9.85 0.45 -11.50 0.15 -1.65 0.40 -16.25 0.55 -32.50 0.15 -16.20 0.35 -33.75 0.45 -39 0.10 -5.20 0.30 -22.20 0.40 -37.75 l0.20 -28.25 -1.70 -3.55 c-2.35 -4.85 -6.25 -8.95 -9.10 -9.45 -3.45 -0.60 -29.50 -0.40 -32.75 0.25 -2.25 0.45 -3.25 0.45 -4.40 -0.05 -0.95 -0.40 -2.95 -0.50 -5.90 -0.30 -2.60 0.15 -4.60 0.10 -4.75 -0.20 -0.20 -0.25 0.55 -1.85 1.60 -3.60 2.05 -3.40 2.35 -4.10 4.85 -11.85 2.80 -8.65 3.75 -12.50 4.30 -17.45 0.30 -2.55 0.75 -5.05 1 -5.55 0.25 -0.45 0.35 -2.50 0.20 -4.55 -0.40 -5.70 0 -6.10 5.80 -6.60 5.60 -0.40 6.40 -0.80 8.45 -3.60 1.90 -2.65 1.90 -3.20 0.20 -4.90 -1.65 -1.55 -4.70 -2.30 -9.20 -2.35 -3.95 0 -5 -0.65 -5.25 -3.25 -0.60 -7.90 -3.95 -19.90 -7.15 -25.65 -2.95 -5.30 -3.10 -5.50 -6.20 -7.15 -2.30 -1.20 -3.40 -1.50 -4.80 -1.30 -1.95 0.25 -6.40 2.70 -8.60 4.70 -0.75 0.70 -2.20 1.35 -3.40 1.50 -1.95 0.25 -2.15 0.15 -5.40 -3 -4.75 -4.55 -7.30 -5.35 -11.05 -3.35 -4.50 2.35 -9.45 11.40 -11.65 21.25 -0.25 1.10 -0.80 4.70 -1.20 7.95 -0.45 3.30 -1.05 6.30 -1.35 6.65 -0.35 0.45 -1.80 0.65 -4.45 0.65 -4.65 0 -7.50 1 -9 3.10 -2.70 3.75 2.35 8.40 9.10 8.40 2.95 0 3 0 3.75 1.80 0.60 1.40 0.70 2.85 0.45 6.15 -0.35 5.05 1.45 17.85 3.25 22.80 0.55 1.65 1.25 4.10 1.55 5.45 0.25 1.35 1.70 4.70 3.20 7.40 1.50 2.70 2.75 5.10 2.75 5.35 0 1.20 -3.30 1.40 -24.80 1.20 l-22.55 -0.15 -3.10 2.10 c-3.95 2.65 -6.25 5.30 -7.60 8.85 -0.95 2.55 -1.05 3.70 -1 12.30 0.05 5.25 0.30 11.50 0.60 14 0.30 2.65 0.30 6.75 0.10 10 -0.45 5.85 -0.45 15.05 -0.15 25.25 0.15 4.45 0.05 6.75 -0.45 8 -0.55 1.45 -0.55 2.65 -0.05 6.50 0.30 2.60 0.60 6.20 0.65 8 0.05 4.25 -0.55 39.30 -1 57.50 -0.55 21.45 -0.55 21.35 1.35 25.35 0.85 1.85 1.90 4.35 2.25 5.50 0.55 1.85 4.95 8.15 5.70 8.15 0.15 0 1.65 1.15 3.30 2.60 1.65 1.40 4.80 3.40 7 4.45 2.20 1 4.50 2.40 5.15 3.05 l1.10 1.20 -0.75 6 c-1 8.10 -1.75 13.20 -2.55 17.95 -0.40 2.20 -0.80 5.65 -0.95 7.65 -0.10 2 -0.35 3.90 -0.60 4.20 -0.20 0.35 -0.50 3.35 -0.70 6.65 -0.20 3.30 -0.65 8.15 -0.95 10.75 -0.30 2.60 -0.60 6.10 -0.70 7.75 -0.10 1.65 -0.55 6.05 -1 9.75 -0.50 3.70 -1.05 10.70 -1.35 15.50 -0.25 4.80 -0.80 11 -1.20 13.75 -0.40 2.75 -0.90 8.25 -1 12.25 -0.30 6.85 -0.45 8.65 -1.75 16.50 -1.05 6.50 -1.80 17.20 -1.60 22 0.15 3.05 -0.70 19.30 -1.15 21.60 -0.40 2.10 -2.20 4 -4.80 5.10 -2.25 0.95 -5.50 4.75 -7.20 8.35 -1.40 3.10 -1.55 4.55 -0.50 5.45 0.65 0.55 19.05 0.90 50 1.05 1.10 0 3.35 0.05 5 0.10 6.40 0.15 10.55 0.10 11.80 -0.25 1.90 -0.55 2.40 -2.35 2.35 -9.15 0 -5.10 0.50 -11.80 1.90 -23.50 0.15 -1.35 0.35 -3.75 0.50 -5.25 0.50 -6.45 1.65 -18.90 3.50 -38.50 1.65 -17.50 2.20 -22.35 2.65 -24.75 0.25 -1.35 0.50 -2.85 0.50 -3.20 0.05 -0.50 0.20 -0.60 0.55 -0.25 0.25 0.25 0.80 5.30 1.20 11.20 0.45 5.90 1.10 14.35 1.50 18.75 0.45 4.40 1 11.25 1.30 15.25 0.30 4 0.75 8.95 1 11 0.55 4.15 1.45 14.45 1.80 19.50 0.10 1.80 0.30 5.15 0.50 7.50 0.15 2.35 0.45 8.10 0.65 12.85 0.15 4.70 0.50 8.75 0.70 9 1.15 1.10 4.35 1.55 9.35 1.25 2.90 -0.15 8.05 -0.35 11.50 -0.45z"/>
  <path d="M116.15 502.95 c-0.65 -0.20 -1.15 -0.60 -1.15 -0.80 0 -0.20 -0.20 -1.75 -0.50 -3.40 -0.55 -3.45 -1.55 -15.05 -1.60 -18 0 -1.10 -0.20 -2.90 -0.50 -4 -0.50 -2.05 -1.30 -12.65 -1.70 -21.75 -0.10 -2.90 -0.40 -6.75 -0.70 -8.60 -0.25 -1.85 -0.50 -4.85 -0.50 -6.75 0 -1.85 -0.35 -4.95 -0.75 -6.90 -0.95 -4.75 -1.65 -10.80 -2 -17.85 -0.35 -7.65 -1.15 -18.05 -1.50 -19.50 -0.20 -1.05 -1.25 -14.05 -1.50 -19.65 -0.10 -1.35 -0.30 -3.95 -0.50 -5.75 -0.20 -1.80 -0.30 -5.60 -0.30 -8.50 0.10 -6.95 -0.60 -9.80 -2.65 -11.05 -1.90 -1.15 -3.45 -1.20 -5.30 -0.10 -2 1.15 -2.60 2.80 -2.80 7.65 -0.30 7.45 -1.20 16.20 -2.70 25.70 -0.25 1.85 -0.85 7.15 -1.25 11.75 -1.05 11.80 -2.15 21.45 -2.45 21.95 -0.10 0.20 -0.40 3 -0.55 6.15 -0.35 6.20 -0.75 9.50 -2 17.20 -0.50 2.75 -0.90 6.60 -0.95 8.50 -0.20 5.65 -0.80 14.20 -1.30 18.25 -1 7.90 -1.50 12.95 -1.80 17.75 -0.15 2.75 -0.35 5.10 -0.50 5.30 -0.10 0.15 -0.30 2.40 -0.45 4.95 -0.35 5.75 -0.70 6.50 -3.10 6.50 -1.80 0 -3.05 -0.20 -11.90 -1.75 -2.45 -0.40 -5.60 -0.90 -7 -1.10 -1.35 -0.15 -2.90 -0.50 -3.40 -0.75 -0.50 -0.25 -2.95 -0.70 -5.40 -0.95 -6.65 -0.65 -6.50 -0.50 -6.20 -6.60 0.10 -2.80 0.45 -6.90 0.75 -9.10 0.55 -4.15 1 -8.20 1.95 -18.50 0.30 -3.30 0.80 -6.95 1.05 -8.10 0.30 -1.15 0.35 -2.45 0.20 -2.85 -0.15 -0.45 0.05 -3.10 0.50 -5.90 0.40 -2.85 0.85 -7.60 1 -10.65 0.15 -3 0.60 -6.75 0.95 -8.25 0.40 -1.50 0.75 -5 0.80 -7.75 0.05 -2.75 0.45 -8.15 0.85 -12 0.85 -7.50 0.90 -8 1.65 -15.25 0.50 -4.80 1.50 -18 1.80 -24 0.30 -5.65 2.75 -31.15 3.25 -34.05 0.30 -1.50 0.50 -3.65 0.50 -4.80 0 -1.10 0.25 -3.25 0.50 -4.70 0.30 -1.50 0.55 -3.60 0.55 -4.70 0 -1.10 0.35 -5.05 0.80 -8.75 0.40 -3.70 0.95 -9.10 1.15 -12 0.25 -2.90 0.75 -8.15 1.15 -11.75 0.45 -3.55 0.95 -9 1.10 -12.10 0.25 -3.75 0.60 -5.80 1.05 -6.20 0.65 -0.55 15.05 -0.40 44.45 0.40 11.20 0.30 15 0.35 17.15 0.10 0.45 -0.05 3.05 0.10 5.70 0.30 3.85 0.30 4.95 0.55 5.10 1.20 0.50 1.70 0.85 6.10 1.05 12.05 0.15 3.45 0.45 8.75 0.70 11.75 0.80 8.85 0.95 11.10 1.25 19 0.15 4.15 0.55 10.65 0.80 14.50 0.30 3.85 0.65 9.95 0.75 13.50 0.40 10.65 0.70 15.30 1.25 19.50 0.30 2.20 0.50 5.90 0.50 8.25 -0.05 2.35 0.05 5.60 0.20 7.25 0.65 7.45 1.35 20.70 1.55 28 0.10 4.40 0.55 11.25 0.95 15.25 0.45 4 0.80 9.15 0.80 11.50 0 2.35 0.20 5.95 0.50 8 1.30 9.80 1.60 12.60 1.75 17 0.10 2.60 0.40 8.15 0.70 12.25 0.30 4.15 0.65 9.40 0.80 11.75 0.10 2.35 0.35 6.75 0.55 9.75 0.25 4.50 0.15 5.65 -0.40 6.15 -0.40 0.30 -2.75 0.95 -5.20 1.40 -2.45 0.40 -8.50 1.55 -13.45 2.50 -4.95 0.95 -9.70 1.70 -10.50 1.70 -0.85 0 -1.75 0.20 -2 0.45 -0.30 0.25 -1 0.25 -1.60 0z"/>
  <path d="M148.10 309.90 c-0.80 -1 -1.45 -5.90 -1.55 -11.65 -0.05 -2.75 -0.30 -6.80 -0.60 -8.95 -0.30 -2.20 -0.40 -4.45 -0.25 -5.10 0.15 -0.60 0.10 -1.70 -0.15 -2.40 -0.70 -1.75 -1 -13.35 -0.50 -18.35 0.70 -6.95 1.40 -14.95 1.65 -19.20 0.15 -2.20 0.50 -5.70 0.80 -7.75 0.55 -4.25 1.35 -12.10 1.75 -17.25 0.70 -9.75 1.35 -16.60 1.60 -17.45 0.15 -0.55 0.35 -2.70 0.50 -4.75 0.45 -8.10 1.10 -14.50 1.85 -19.30 1.05 -6.55 1 -7.55 -0.25 -8.80 -0.90 -0.90 -1.40 -1 -4.10 -0.70 -2.30 0.25 -3.45 0.65 -4.30 1.55 -1.15 1.10 -1.25 1.65 -1.65 8.05 -0.20 3.80 -0.70 9.95 -1.10 13.65 -1 8.60 -2.20 24.95 -2.25 30.50 -0.05 2.35 -0.25 5.25 -0.55 6.50 -0.25 1.25 -0.70 6.20 -0.95 11 -0.60 10.25 -2.20 21.45 -3.15 22.05 -0.35 0.25 -2.80 0.30 -5.40 0.10 -5.60 -0.30 -18.10 -0.55 -46.40 -0.75 -20 -0.15 -20.70 -0.20 -21.40 -1.15 -0.55 -0.75 -0.70 -2.50 -0.65 -7.50 0.05 -3.55 -0.20 -7.85 -0.50 -9.55 -0.30 -1.70 -0.65 -6.50 -0.75 -10.75 -0.15 -4.25 -0.45 -10.10 -0.75 -12.95 -0.55 -5 -0.85 -8.35 -2.10 -20.75 -0.30 -3 -0.60 -7.95 -0.70 -11 -0.50 -14.05 -0.80 -17.45 -1.90 -18.60 -1.65 -1.85 -7.20 -1.25 -8.35 0.85 -0.65 1.20 -0.65 4.90 0 8.65 0.45 2.85 1.40 17.15 1.75 26.45 0.20 5.40 1.05 16.45 1.45 18.65 0.15 0.85 0.40 3.55 0.55 6 0.15 2.50 0.45 6.30 0.70 8.50 0.30 2.20 0.50 6.35 0.55 9.25 0 2.90 0.20 6.60 0.50 8.25 0.25 1.65 0.60 5.25 0.75 8 0.15 2.75 0.40 5.40 0.55 5.90 0.15 0.50 0.05 1.20 -0.25 1.55 -0.30 0.35 -0.50 1.30 -0.50 2.10 0.05 2.05 -0.85 13.10 -1.80 21.95 -0.45 4.15 -0.90 8.95 -1 10.70 -0.10 1.75 -0.40 3.40 -0.70 3.70 -1.10 1.10 -9.40 -3.35 -11.55 -6.25 -1.75 -2.40 -3.50 -6.20 -3.50 -7.70 0 -0.70 -0.20 -1.70 -0.50 -2.20 -0.80 -1.50 -1 -12.30 -0.95 -57.50 0.10 -73.80 0.50 -99.55 1.60 -102.80 0.30 -1 1.25 -2.35 2 -2.90 1.70 -1.25 0.80 -1.25 54.35 -1.25 71.45 -0.05 68.25 -0.15 73.05 1.55 2.50 0.90 3.45 3.80 3.85 11.40 0.15 3.70 0.25 7.55 0.20 8.50 0 0.95 0 4.70 0.05 8.25 0.20 11.75 -0.55 94.50 -0.95 106.25 -0.15 4.25 -0.25 10.10 -0.25 12.90 0 9.45 -1.40 18.15 -3.75 22.65 -2.10 4.10 -7.35 8.80 -10.80 9.60 -0.70 0.20 -1.65 0.45 -2 0.60 -0.40 0.15 -1 0 -1.30 -0.35z"/>
  <path d="M99 118.50 c-1.80 -0.15 -4.10 -0.65 -5.15 -1.15 -1.95 -0.85 -7.35 -5.95 -7.35 -6.95 0 -0.30 -0.80 -2.20 -1.75 -4.20 -0.95 -2 -1.75 -3.95 -1.75 -4.30 0 -0.40 -0.45 -2.05 -1 -3.70 -0.55 -1.60 -1.20 -4.65 -1.50 -6.70 -0.25 -2.05 -0.70 -4.85 -0.90 -6.25 -0.65 -3.70 -0.75 -15.05 -0.15 -16.15 0.50 -0.90 1.25 -0.95 20.40 -0.75 18.30 0.20 19.95 0.30 20.80 1.15 0.55 0.45 0.95 1.40 1 2.05 0.05 1.95 -1.20 12.55 -1.65 13.70 -0.20 0.60 -0.70 3.30 -1 6.05 -0.35 2.70 -1.05 5.80 -1.55 6.80 -0.55 1.05 -0.95 2.25 -0.95 2.75 0 1.30 -3.25 8.95 -4.70 11.20 -1.85 2.75 -7.70 7.15 -9.15 6.85 -0.20 0 -1.85 -0.20 -3.65 -0.40z"/>
 </g>
</svg>